<svg width="26" height="26" viewBox="0 0 26 26" fill="none" xmlns="http://www.w3.org/2000/svg">
<path fill-rule="evenodd" clip-rule="evenodd" d="M16.783 7.02734H9.21738C8.00981 7.02734 7.02734 8.00981 7.02734 9.21738V16.783C7.02734 17.9905 8.00981 18.9733 9.21738 18.9733H16.783C17.9905 18.9733 18.9733 17.9908 18.9733 16.783V9.21738C18.9733 8.00981 17.9908 7.02734 16.783 7.02734ZM13.0002 16.9326C10.832 16.9326 9.06782 15.1685 9.06782 12.9999C9.06782 10.8316 10.832 9.06751 13.0002 9.06751C15.1688 9.06751 16.9329 10.8316 16.9329 12.9999C16.9329 15.1682 15.1685 16.9326 13.0002 16.9326ZM16.1285 8.95026C16.1285 9.46326 16.5459 9.88068 17.0592 9.88068C17.5722 9.88068 17.9896 9.46326 17.9896 8.95026C17.9896 8.43725 17.5722 8.01983 17.0592 8.01983C16.5459 8.01983 16.1285 8.43725 16.1285 8.95026Z" fill="white"/>
<path d="M12.9987 10.541C11.643 10.541 10.5391 11.6443 10.5391 13C10.5391 14.3563 11.643 15.4599 12.9987 15.4599C14.355 15.4599 15.458 14.3563 15.458 13C15.458 11.6446 14.3547 10.541 12.9987 10.541Z" fill="white"/>
<path fill-rule="evenodd" clip-rule="evenodd" d="M0 13C0 5.82058 5.82058 0 13 0C20.1794 0 26 5.82058 26 13C26 20.1794 20.1794 26 13 26C5.82058 26 0 20.1794 0 13ZM16.8748 20.855C19.0505 20.855 20.82 19.0854 20.82 16.9097V9.16054C20.82 6.98514 19.0505 5.21527 16.8748 5.21527H9.12557C6.95017 5.21527 5.1803 6.98514 5.1803 9.16054V16.9097C5.1803 19.0854 6.95017 20.855 9.12557 20.855H16.8748Z" fill="white"/>
</svg>
