<svg width="42" height="42" viewBox="0 0 42 42" fill="none" xmlns="http://www.w3.org/2000/svg">
<path fill-rule="evenodd" clip-rule="evenodd" d="M21 41C32.0457 41 41 32.0457 41 21C41 9.9543 32.0457 1 21 1C9.9543 1 1 9.9543 1 21C1 32.0457 9.9543 41 21 41Z" stroke="white"/>
<path d="M28.966 25.397C28.9207 25.2607 28.6328 25.0598 28.1023 24.7949C27.9587 24.7114 27.7539 24.5979 27.489 24.454C27.2238 24.31 26.9831 24.1773 26.7673 24.0561C26.5511 23.9349 26.3486 23.8175 26.1593 23.704C26.129 23.6813 26.0344 23.6151 25.8753 23.505C25.716 23.3952 25.5817 23.3138 25.4716 23.2606C25.3618 23.2078 25.2538 23.1812 25.1477 23.1812C24.9962 23.1812 24.807 23.2893 24.5798 23.505C24.3526 23.7211 24.1442 23.9557 23.9549 24.2097C23.7655 24.4636 23.5647 24.6983 23.3528 24.9142C23.1406 25.1302 22.9662 25.2381 22.83 25.2381C22.7616 25.2381 22.6764 25.2191 22.5742 25.1814C22.4721 25.1436 22.3944 25.1112 22.341 25.085C22.2882 25.0583 22.1974 25.0054 22.0686 24.9256C21.9394 24.8461 21.8676 24.8025 21.8525 24.7949C20.8146 24.219 19.9245 23.5599 19.182 22.8177C18.4397 22.0751 17.7804 21.1851 17.2047 20.1472C17.1971 20.132 17.1535 20.06 17.074 19.9313C16.9944 19.8025 16.9413 19.7117 16.9148 19.6585C16.8883 19.6055 16.8561 19.5279 16.8183 19.4256C16.7805 19.3234 16.7615 19.2382 16.7615 19.1699C16.7615 19.0336 16.8695 18.8593 17.0854 18.6472C17.3013 18.4352 17.5362 18.2343 17.7899 18.0451C18.0438 17.8558 18.2785 17.6474 18.4945 17.4202C18.7104 17.1929 18.8183 17.0036 18.8183 16.8521C18.8183 16.7462 18.7918 16.6381 18.7388 16.5283C18.6858 16.4182 18.6044 16.2839 18.4945 16.1248C18.3845 15.9657 18.3183 15.8711 18.2955 15.8406C18.182 15.6514 18.0647 15.4488 17.9433 15.2328C17.822 15.017 17.6895 14.7763 17.5455 14.5112C17.4016 14.2462 17.288 14.0416 17.2046 13.8977C16.9396 13.3675 16.7389 13.0795 16.6025 13.0342C16.5494 13.0115 16.4698 13 16.3638 13C16.1592 13 15.8922 13.0378 15.5626 13.1137C15.233 13.1894 14.9736 13.2689 14.7842 13.3523C14.4053 13.5113 14.0038 13.9734 13.5795 14.7384C13.1932 15.4504 13 16.1551 13 16.8519C13 17.0563 13.0133 17.2552 13.0398 17.4485C13.0663 17.6417 13.1136 17.8595 13.1819 18.102C13.25 18.3444 13.305 18.5244 13.3466 18.6417C13.3882 18.759 13.4658 18.9692 13.5795 19.2723C13.693 19.5754 13.7613 19.7609 13.784 19.8291C14.0491 20.5715 14.3636 21.2343 14.7272 21.8177C15.3254 22.7873 16.1418 23.7894 17.1759 24.8235C18.21 25.8575 19.212 26.6739 20.1818 27.2723C20.7651 27.6359 21.4282 27.9502 22.1705 28.2155C22.2388 28.2381 22.4243 28.3062 22.7272 28.4201C23.0303 28.5337 23.2406 28.6114 23.3579 28.6531C23.4753 28.6948 23.6554 28.7498 23.8976 28.818C24.1403 28.8863 24.358 28.9337 24.5512 28.9604C24.7444 28.9865 24.9433 29 25.1478 29C25.8446 29 26.5494 28.8067 27.2615 28.4204C28.0265 27.9963 28.4885 27.5947 28.6476 27.2157C28.7313 27.0265 28.8105 26.767 28.8863 26.4374C28.9623 26.1079 29 25.8409 29 25.6363C29.0002 25.5299 28.9888 25.4505 28.966 25.397Z" fill="white"/>
</svg>
