<svg width="123" height="20" viewBox="0 0 123 20" fill="none" xmlns="http://www.w3.org/2000/svg">
<path d="M31.0953 18.8596L43.4669 6.64679C44.9982 5.12625 44.9982 2.66096 43.4669 1.14041C41.9355 -0.380135 39.4527 -0.380131 37.9214 1.14041L28.347 10.6629L18.6193 1.14041C17.088 -0.380135 14.6052 -0.380131 13.0738 1.14041L1.14851 12.9816C-0.382837 14.5021 -0.382837 16.9674 1.14851 18.488C2.67986 20.0085 5.16267 20.0085 6.69402 18.488L15.9253 9.32181L25.5498 18.8596C27.0812 20.3801 29.564 20.3801 31.0953 18.8596Z" fill="#A47F80"/>
<path d="M63.4073 18.173V6.35358H60.641V13.6616L54.6762 6.35358H52.3076V18.173H55.0566V10.8649L61.0387 18.173H63.4073Z" fill="#A47F80"/>
<path d="M85.739 18.173H88.2114L93.2426 6.35358H90.2169L86.9666 14.2276L83.6989 6.35358H80.7079L85.739 18.173Z" fill="#A47F80"/>
<path d="M94.4934 18.173H91.6234L96.8793 6.35358H99.3689L104.625 18.173H101.755L99.6629 13.3786L98.1241 9.83281L96.5681 13.3786L95.5826 15.6759L94.4934 18.173Z" fill="#A47F80"/>
<path d="M110.993 18.3727C113.552 18.3727 115.384 16.8745 115.384 14.727C115.402 12.9458 114.243 11.8138 112.462 11.1979L111.598 10.8982C110.284 10.4487 109.696 10.1824 109.696 9.53315C109.696 8.91721 110.44 8.63421 111.183 8.63421C111.961 8.63421 112.739 8.95051 113.31 9.61639L115.108 7.78522C113.949 6.58663 112.653 6.15381 111.148 6.15381C108.711 6.15381 106.913 7.50222 106.913 9.7995C106.913 11.4143 108.002 12.5629 110.007 13.2121L110.872 13.4951C112.117 13.8947 112.583 14.3108 112.583 14.9101C112.583 15.4928 112.013 15.8923 111.097 15.8923C110.198 15.8923 109.16 15.3929 108.555 14.5439L106.446 16.2585C107.414 17.5903 109.039 18.3727 110.993 18.3727Z" fill="#A47F80"/>
<path d="M69.3375 12.352C69.3375 14.2665 70.9108 15.8979 72.9163 15.8979C73.289 15.8979 73.647 15.8406 73.9829 15.7348L76.007 17.6838C75.0913 18.1788 74.0368 18.4615 72.9163 18.4615C69.4066 18.4615 66.5712 15.7147 66.5712 12.352C66.5712 8.98935 69.4066 6.24259 72.9163 6.24259C76.4088 6.24259 79.2615 8.98935 79.2615 12.352C79.2615 13.6347 78.8464 14.8278 78.1391 15.8129L76.1275 13.876C76.3524 13.4109 76.4779 12.8927 76.4779 12.352C76.4779 10.4376 74.9046 8.80623 72.9163 8.80623C70.9108 8.80623 69.3375 10.4376 69.3375 12.352Z" fill="#A47F80"/>
<circle cx="120" cy="16.1539" r="2.30769" fill="#A47F80"/>
</svg>
